<mxfile host="app.diagrams.net" agent="Mozilla/5.0 (Windows NT 10.0; Win64; x64) AppleWebKit/537.36 (KHTML, like Gecko) Chrome/128.0.0.0 Safari/537.36" version="24.7.13">
  <diagram name="Page-1" id="rtQKRNsps3CleD5yS4wt">
    <mxGraphModel dx="4014" dy="1180" grid="1" gridSize="10" guides="1" tooltips="1" connect="1" arrows="1" fold="1" page="1" pageScale="1" pageWidth="850" pageHeight="1100" background="#ffffff" math="0" shadow="0">
      <root>
        <mxCell id="0" />
        <mxCell id="1" parent="0" />
        <mxCell id="8pSMR1mgs5Wxbhjiagll-1" value="IT Research Needs" style="rounded=1;whiteSpace=wrap;html=1;fillColor=#e1d5e7;strokeColor=#9673a6;" parent="1" vertex="1">
          <mxGeometry x="-10" y="20" width="190" height="60" as="geometry" />
        </mxCell>
        <mxCell id="8pSMR1mgs5Wxbhjiagll-4" value="" style="endArrow=classic;html=1;rounded=0;exitX=0.5;exitY=1;exitDx=0;exitDy=0;" parent="1" source="8pSMR1mgs5Wxbhjiagll-1" target="8pSMR1mgs5Wxbhjiagll-2" edge="1">
          <mxGeometry width="50" height="50" relative="1" as="geometry">
            <mxPoint x="425" y="100" as="sourcePoint" />
            <mxPoint x="425" y="170" as="targetPoint" />
          </mxGeometry>
        </mxCell>
        <mxCell id="8pSMR1mgs5Wxbhjiagll-2" value="What is your primary requirement?" style="rounded=1;whiteSpace=wrap;html=1;fillColor=#e1d5e7;strokeColor=#9673a6;" parent="1" vertex="1">
          <mxGeometry x="-50" y="130" width="270" height="60" as="geometry" />
        </mxCell>
        <mxCell id="8pSMR1mgs5Wxbhjiagll-6" value="Choose Storage type" style="rounded=1;whiteSpace=wrap;html=1;fillColor=#e1d5e7;strokeColor=#9673a6;" parent="1" vertex="1">
          <mxGeometry x="460" y="310" width="220" height="60" as="geometry" />
        </mxCell>
        <mxCell id="8pSMR1mgs5Wxbhjiagll-7" value="Cloud Computing" style="text;strokeColor=none;fillColor=none;align=left;verticalAlign=middle;spacingLeft=4;spacingRight=4;overflow=hidden;points=[[0,0.5],[1,0.5]];portConstraint=eastwest;rotatable=0;whiteSpace=wrap;html=1;" parent="1" vertex="1">
          <mxGeometry x="-60" y="220" width="160" height="30" as="geometry" />
        </mxCell>
        <mxCell id="8pSMR1mgs5Wxbhjiagll-8" value="" style="endArrow=classic;html=1;rounded=0;exitX=0.387;exitY=1.013;exitDx=0;exitDy=0;exitPerimeter=0;entryX=0;entryY=0.5;entryDx=0;entryDy=0;" parent="1" source="8pSMR1mgs5Wxbhjiagll-2" target="8pSMR1mgs5Wxbhjiagll-5" edge="1">
          <mxGeometry width="50" height="50" relative="1" as="geometry">
            <mxPoint x="430" y="400" as="sourcePoint" />
            <mxPoint x="480" y="350" as="targetPoint" />
            <Array as="points">
              <mxPoint x="54" y="340" />
            </Array>
          </mxGeometry>
        </mxCell>
        <mxCell id="8pSMR1mgs5Wxbhjiagll-9" value="" style="endArrow=classic;html=1;rounded=0;exitX=0.75;exitY=1;exitDx=0;exitDy=0;" parent="1" edge="1">
          <mxGeometry width="50" height="50" relative="1" as="geometry">
            <mxPoint x="170.09" y="190" as="sourcePoint" />
            <mxPoint x="600" y="310" as="targetPoint" />
            <Array as="points">
              <mxPoint x="170" y="260" />
              <mxPoint x="600" y="260" />
            </Array>
          </mxGeometry>
        </mxCell>
        <mxCell id="8pSMR1mgs5Wxbhjiagll-10" value="Data Storage and Archival" style="text;strokeColor=none;fillColor=none;align=left;verticalAlign=middle;spacingLeft=4;spacingRight=4;overflow=hidden;points=[[0,0.5],[1,0.5]];portConstraint=eastwest;rotatable=0;whiteSpace=wrap;html=1;" parent="1" vertex="1">
          <mxGeometry x="440" y="220" width="160" height="30" as="geometry" />
        </mxCell>
        <mxCell id="8pSMR1mgs5Wxbhjiagll-11" value="HPC&amp;nbsp;&lt;span style=&quot;color: rgba(0, 0, 0, 0); font-family: monospace; font-size: 0px; text-align: start; text-wrap: nowrap;&quot;&gt;%3CmxGraphModel%3E%3Croot%3E%3CmxCell%20id%3D%220%22%2F%3E%3CmxCell%20id%3D%221%22%20parent%3D%220%22%2F%3E%3CmxCell%20id%3D%222%22%20value%3D%22Use%20HPC%20-%20Pantarhei%22%20style%3D%22rounded%3D1%3BwhiteSpace%3Dwrap%3Bhtml%3D1%3BfillColor%3D%23dae8fc%3BstrokeColor%3D%236c8ebf%3B%22%20vertex%3D%221%22%20parent%3D%221%22%3E%3CmxGeometry%20x%3D%22-50%22%20y%3D%22270%22%20width%3D%22220%22%20height%3D%2260%22%20as%3D%22geometry%22%2F%3E%3C%2FmxCell%3E%3C%2Froot%3E%3C%2FmxGraphModel%3E&lt;/span&gt;" style="rounded=1;whiteSpace=wrap;html=1;fillColor=#e1d5e7;strokeColor=#9673a6;" parent="1" vertex="1">
          <mxGeometry x="-720" y="270" width="220" height="60" as="geometry" />
        </mxCell>
        <mxCell id="8pSMR1mgs5Wxbhjiagll-12" value="Use CIROH AWS Instance or CIROH Google VMs" style="rounded=1;whiteSpace=wrap;html=1;fillColor=#dae8fc;strokeColor=#6c8ebf;" parent="1" vertex="1">
          <mxGeometry x="830" y="460" width="220" height="60" as="geometry" />
        </mxCell>
        <mxCell id="8pSMR1mgs5Wxbhjiagll-14" value="" style="endArrow=classic;html=1;rounded=0;entryX=0.682;entryY=-0.083;entryDx=0;entryDy=0;entryPerimeter=0;exitX=0;exitY=0.5;exitDx=0;exitDy=0;" parent="1" source="8pSMR1mgs5Wxbhjiagll-2" edge="1">
          <mxGeometry width="50" height="50" relative="1" as="geometry">
            <mxPoint x="40" y="174.98" as="sourcePoint" />
            <mxPoint x="-619.9600000000005" y="270" as="targetPoint" />
            <Array as="points">
              <mxPoint x="-620" y="160" />
            </Array>
          </mxGeometry>
        </mxCell>
        <mxCell id="8pSMR1mgs5Wxbhjiagll-15" value="" style="endArrow=classic;html=1;rounded=0;exitX=1;exitY=0.5;exitDx=0;exitDy=0;" parent="1" source="8pSMR1mgs5Wxbhjiagll-2" edge="1">
          <mxGeometry width="50" height="50" relative="1" as="geometry">
            <mxPoint x="560" y="190" as="sourcePoint" />
            <mxPoint x="960" y="456" as="targetPoint" />
            <Array as="points">
              <mxPoint x="960" y="160" />
            </Array>
          </mxGeometry>
        </mxCell>
        <mxCell id="8pSMR1mgs5Wxbhjiagll-16" value="High Performance Computing" style="text;strokeColor=none;fillColor=none;align=left;verticalAlign=middle;spacingLeft=4;spacingRight=4;overflow=hidden;points=[[0,0.5],[1,0.5]];portConstraint=eastwest;rotatable=0;whiteSpace=wrap;html=1;" parent="1" vertex="1">
          <mxGeometry x="-615" y="220" width="190" height="30" as="geometry" />
        </mxCell>
        <mxCell id="8pSMR1mgs5Wxbhjiagll-20" value="Data Intensive Computing" style="text;strokeColor=none;fillColor=none;align=left;verticalAlign=middle;spacingLeft=4;spacingRight=4;overflow=hidden;points=[[0,0.5],[1,0.5]];portConstraint=eastwest;rotatable=0;whiteSpace=wrap;html=1;" parent="1" vertex="1">
          <mxGeometry x="810" y="220" width="190" height="30" as="geometry" />
        </mxCell>
        <mxCell id="8pSMR1mgs5Wxbhjiagll-22" value="Use CIROH AWS Instance" style="rounded=1;whiteSpace=wrap;html=1;fillColor=#dae8fc;strokeColor=#6c8ebf;" parent="1" vertex="1">
          <mxGeometry y="580" width="150" height="60" as="geometry" />
        </mxCell>
        <mxCell id="8pSMR1mgs5Wxbhjiagll-23" value="Use CIROH Google VM" style="rounded=1;whiteSpace=wrap;html=1;fillColor=#dae8fc;strokeColor=#6c8ebf;" parent="1" vertex="1">
          <mxGeometry x="190" y="560" width="160" height="60" as="geometry" />
        </mxCell>
        <mxCell id="8pSMR1mgs5Wxbhjiagll-25" value="Use CIROH Google Buckets" style="rounded=1;whiteSpace=wrap;html=1;fillColor=#dae8fc;strokeColor=#6c8ebf;" parent="1" vertex="1">
          <mxGeometry x="460" y="460" width="170" height="60" as="geometry" />
        </mxCell>
        <mxCell id="8pSMR1mgs5Wxbhjiagll-26" value="Use CIROH AWS Buckets" style="rounded=1;whiteSpace=wrap;html=1;fillColor=#dae8fc;strokeColor=#6c8ebf;" parent="1" vertex="1">
          <mxGeometry x="650" y="460" width="170" height="60" as="geometry" />
        </mxCell>
        <mxCell id="8pSMR1mgs5Wxbhjiagll-47" value="" style="endArrow=classic;html=1;rounded=0;exitX=0.5;exitY=1;exitDx=0;exitDy=0;entryX=0.5;entryY=0;entryDx=0;entryDy=0;" parent="1" source="8pSMR1mgs5Wxbhjiagll-5" target="8pSMR1mgs5Wxbhjiagll-22" edge="1">
          <mxGeometry width="50" height="50" relative="1" as="geometry">
            <mxPoint x="530" y="380" as="sourcePoint" />
            <mxPoint x="580" y="330" as="targetPoint" />
            <Array as="points" />
          </mxGeometry>
        </mxCell>
        <mxCell id="8pSMR1mgs5Wxbhjiagll-48" value="" style="endArrow=classic;html=1;rounded=0;entryX=0.5;entryY=0;entryDx=0;entryDy=0;exitX=0.5;exitY=1;exitDx=0;exitDy=0;" parent="1" source="8pSMR1mgs5Wxbhjiagll-5" target="8pSMR1mgs5Wxbhjiagll-23" edge="1">
          <mxGeometry width="50" height="50" relative="1" as="geometry">
            <mxPoint x="268" y="330" as="sourcePoint" />
            <mxPoint x="580" y="330" as="targetPoint" />
          </mxGeometry>
        </mxCell>
        <mxCell id="8pSMR1mgs5Wxbhjiagll-49" value="" style="endArrow=classic;html=1;rounded=0;entryX=0.5;entryY=0;entryDx=0;entryDy=0;exitX=0.5;exitY=1;exitDx=0;exitDy=0;" parent="1" source="8pSMR1mgs5Wxbhjiagll-5" target="8pSMR1mgs5Wxbhjiagll-24" edge="1">
          <mxGeometry width="50" height="50" relative="1" as="geometry">
            <mxPoint x="270" y="330" as="sourcePoint" />
            <mxPoint x="580" y="330" as="targetPoint" />
          </mxGeometry>
        </mxCell>
        <mxCell id="8pSMR1mgs5Wxbhjiagll-50" value="" style="endArrow=classic;html=1;rounded=0;exitX=0.75;exitY=1;exitDx=0;exitDy=0;entryX=0.5;entryY=0;entryDx=0;entryDy=0;" parent="1" source="8pSMR1mgs5Wxbhjiagll-6" target="8pSMR1mgs5Wxbhjiagll-25" edge="1">
          <mxGeometry width="50" height="50" relative="1" as="geometry">
            <mxPoint x="530" y="380" as="sourcePoint" />
            <mxPoint x="580" y="330" as="targetPoint" />
          </mxGeometry>
        </mxCell>
        <mxCell id="8pSMR1mgs5Wxbhjiagll-51" value="" style="endArrow=classic;html=1;rounded=0;exitX=0.75;exitY=1;exitDx=0;exitDy=0;entryX=0.5;entryY=0;entryDx=0;entryDy=0;" parent="1" source="8pSMR1mgs5Wxbhjiagll-6" target="8pSMR1mgs5Wxbhjiagll-26" edge="1">
          <mxGeometry width="50" height="50" relative="1" as="geometry">
            <mxPoint x="530" y="380" as="sourcePoint" />
            <mxPoint x="580" y="330" as="targetPoint" />
          </mxGeometry>
        </mxCell>
        <mxCell id="8pSMR1mgs5Wxbhjiagll-52" value="General Purpose" style="text;strokeColor=none;fillColor=none;align=left;verticalAlign=middle;spacingLeft=4;spacingRight=4;overflow=hidden;points=[[0,0.5],[1,0.5]];portConstraint=eastwest;rotatable=0;whiteSpace=wrap;html=1;" parent="1" vertex="1">
          <mxGeometry x="70" y="450" width="120" height="30" as="geometry" />
        </mxCell>
        <mxCell id="8pSMR1mgs5Wxbhjiagll-53" value="Google-specific&lt;div&gt;services&lt;/div&gt;" style="text;strokeColor=none;fillColor=none;align=left;verticalAlign=middle;spacingLeft=4;spacingRight=4;overflow=hidden;points=[[0,0.5],[1,0.5]];portConstraint=eastwest;rotatable=0;whiteSpace=wrap;html=1;" parent="1" vertex="1">
          <mxGeometry x="180" y="470" width="170" height="30" as="geometry" />
        </mxCell>
        <mxCell id="8pSMR1mgs5Wxbhjiagll-54" value="Interactive&amp;nbsp;&lt;div&gt;Computing&lt;div&gt;&amp;nbsp;Environment&lt;/div&gt;&lt;/div&gt;" style="text;strokeColor=none;fillColor=none;align=left;verticalAlign=middle;spacingLeft=4;spacingRight=4;overflow=hidden;points=[[0,0.5],[1,0.5]];portConstraint=eastwest;rotatable=0;whiteSpace=wrap;html=1;" parent="1" vertex="1">
          <mxGeometry x="310" y="460" width="150" height="60" as="geometry" />
        </mxCell>
        <mxCell id="8pSMR1mgs5Wxbhjiagll-55" value="Google Ecosystem" style="text;strokeColor=none;fillColor=none;align=left;verticalAlign=middle;spacingLeft=4;spacingRight=4;overflow=hidden;points=[[0,0.5],[1,0.5]];portConstraint=eastwest;rotatable=0;whiteSpace=wrap;html=1;" parent="1" vertex="1">
          <mxGeometry x="450" y="420" width="150" height="30" as="geometry" />
        </mxCell>
        <mxCell id="8pSMR1mgs5Wxbhjiagll-56" value="AWS Ecosystem" style="text;strokeColor=none;fillColor=none;align=left;verticalAlign=middle;spacingLeft=4;spacingRight=4;overflow=hidden;points=[[0,0.5],[1,0.5]];portConstraint=eastwest;rotatable=0;whiteSpace=wrap;html=1;" parent="1" vertex="1">
          <mxGeometry x="695" y="410" width="115" height="30" as="geometry" />
        </mxCell>
        <mxCell id="8pSMR1mgs5Wxbhjiagll-5" value="Choose Compute" style="rounded=1;whiteSpace=wrap;html=1;fillColor=#e1d5e7;strokeColor=#9673a6;" parent="1" vertex="1">
          <mxGeometry x="155" y="310" width="220" height="60" as="geometry" />
        </mxCell>
        <mxCell id="8pSMR1mgs5Wxbhjiagll-62" value="Use UA HPC" style="rounded=1;whiteSpace=wrap;html=1;fillColor=#dae8fc;strokeColor=#6c8ebf;" parent="1" vertex="1">
          <mxGeometry x="-790" y="395" width="110" height="60" as="geometry" />
        </mxCell>
        <mxCell id="8pSMR1mgs5Wxbhjiagll-63" value="Use CIROH On-Premise HPC" style="rounded=1;whiteSpace=wrap;html=1;fillColor=#dae8fc;strokeColor=#6c8ebf;" parent="1" vertex="1">
          <mxGeometry x="-510" y="390" width="190" height="60" as="geometry" />
        </mxCell>
        <mxCell id="8pSMR1mgs5Wxbhjiagll-65" value="" style="endArrow=classic;html=1;rounded=0;strokeColor=#736CA8;fontColor=#1A1A1A;exitX=0.5;exitY=1;exitDx=0;exitDy=0;entryX=0.5;entryY=0;entryDx=0;entryDy=0;" parent="1" source="8pSMR1mgs5Wxbhjiagll-11" target="8pSMR1mgs5Wxbhjiagll-62" edge="1">
          <mxGeometry width="50" height="50" relative="1" as="geometry">
            <mxPoint x="-60" y="530" as="sourcePoint" />
            <mxPoint x="-10" y="480" as="targetPoint" />
          </mxGeometry>
        </mxCell>
        <mxCell id="8pSMR1mgs5Wxbhjiagll-66" value="" style="endArrow=classic;html=1;rounded=0;strokeColor=#736CA8;fontColor=#1A1A1A;exitX=0.5;exitY=1;exitDx=0;exitDy=0;entryX=0.5;entryY=0;entryDx=0;entryDy=0;" parent="1" source="8pSMR1mgs5Wxbhjiagll-11" target="8pSMR1mgs5Wxbhjiagll-63" edge="1">
          <mxGeometry width="50" height="50" relative="1" as="geometry">
            <mxPoint x="-110" y="330" as="sourcePoint" />
            <mxPoint x="-205" y="395" as="targetPoint" />
          </mxGeometry>
        </mxCell>
        <mxCell id="02JIWl4LWiFKqUMM9TiH-1" value="Hydroshare" style="rounded=1;whiteSpace=wrap;html=1;fillColor=#dae8fc;strokeColor=#6c8ebf;" parent="1" vertex="1">
          <mxGeometry x="730" y="310" width="170" height="60" as="geometry" />
        </mxCell>
        <mxCell id="02JIWl4LWiFKqUMM9TiH-2" value="" style="endArrow=classic;html=1;rounded=0;entryX=-0.018;entryY=0.502;entryDx=0;entryDy=0;entryPerimeter=0;" parent="1" target="02JIWl4LWiFKqUMM9TiH-1" edge="1">
          <mxGeometry width="50" height="50" relative="1" as="geometry">
            <mxPoint x="680" y="340" as="sourcePoint" />
            <mxPoint x="710" y="346" as="targetPoint" />
          </mxGeometry>
        </mxCell>
        <mxCell id="02JIWl4LWiFKqUMM9TiH-5" value="CPU Options&lt;span style=&quot;color: rgba(0, 0, 0, 0); font-family: monospace; font-size: 0px; text-align: start; text-wrap: nowrap;&quot;&gt;%3CmxGraphModel%3E%3Croot%3E%3CmxCell%20id%3D%220%22%2F%3E%3CmxCell%20id%3D%221%22%20parent%3D%220%22%2F%3E%3CmxCell%20id%3D%222%22%20value%3D%22Use%20CIROH%20AWS%20Instance%22%20style%3D%22rounded%3D1%3BwhiteSpace%3Dwrap%3Bhtml%3D1%3BfillColor%3D%23dae8fc%3BstrokeColor%3D%236c8ebf%3B%22%20vertex%3D%221%22%20parent%3D%221%22%3E%3CmxGeometry%20y%3D%22560%22%20width%3D%22150%22%20height%3D%2260%22%20as%3D%22geometry%22%2F%3E%3C%2FmxCell%3E%3C%2Froot%3E%3C%2FmxGraphModel%3E&lt;/span&gt;" style="rounded=1;whiteSpace=wrap;html=1;fillColor=#dae8fc;strokeColor=#6c8ebf;" parent="1" vertex="1">
          <mxGeometry x="-910" y="540" width="150" height="60" as="geometry" />
        </mxCell>
        <mxCell id="02JIWl4LWiFKqUMM9TiH-6" value="GPU Options" style="rounded=1;whiteSpace=wrap;html=1;fillColor=#dae8fc;strokeColor=#6c8ebf;" parent="1" vertex="1">
          <mxGeometry x="-720" y="540" width="150" height="60" as="geometry" />
        </mxCell>
        <mxCell id="02JIWl4LWiFKqUMM9TiH-7" value="Wukong" style="rounded=1;whiteSpace=wrap;html=1;fillColor=#dae8fc;strokeColor=#6c8ebf;" parent="1" vertex="1">
          <mxGeometry x="-310" y="540" width="150" height="60" as="geometry" />
        </mxCell>
        <mxCell id="02JIWl4LWiFKqUMM9TiH-8" value="GPU Options" style="rounded=1;whiteSpace=wrap;html=1;fillColor=#dae8fc;strokeColor=#6c8ebf;" parent="1" vertex="1">
          <mxGeometry x="500" y="800" width="150" height="60" as="geometry" />
        </mxCell>
        <mxCell id="02JIWl4LWiFKqUMM9TiH-9" value="GPU Options" style="rounded=1;whiteSpace=wrap;html=1;fillColor=#dae8fc;strokeColor=#6c8ebf;" parent="1" vertex="1">
          <mxGeometry x="140" y="800" width="150" height="60" as="geometry" />
        </mxCell>
        <mxCell id="02JIWl4LWiFKqUMM9TiH-10" value="GPU Options" style="rounded=1;whiteSpace=wrap;html=1;fillColor=#dae8fc;strokeColor=#6c8ebf;" parent="1" vertex="1">
          <mxGeometry x="-190" y="800" width="150" height="60" as="geometry" />
        </mxCell>
        <mxCell id="02JIWl4LWiFKqUMM9TiH-11" value="CPU Options&lt;span style=&quot;color: rgba(0, 0, 0, 0); font-family: monospace; font-size: 0px; text-align: start; text-wrap: nowrap;&quot;&gt;%3CmxGraphModel%3E%3Croot%3E%3CmxCell%20id%3D%220%22%2F%3E%3CmxCell%20id%3D%221%22%20parent%3D%220%22%2F%3E%3CmxCell%20id%3D%222%22%20value%3D%22Use%20CIROH%20AWS%20Instance%22%20style%3D%22rounded%3D1%3BwhiteSpace%3Dwrap%3Bhtml%3D1%3BfillColor%3D%23dae8fc%3BstrokeColor%3D%236c8ebf%3B%22%20vertex%3D%221%22%20parent%3D%221%22%3E%3CmxGeometry%20y%3D%22560%22%20width%3D%22150%22%20height%3D%2260%22%20as%3D%22geometry%22%2F%3E%3C%2FmxCell%3E%3C%2Froot%3E%3C%2FmxGraphModel%3E&lt;/span&gt;" style="rounded=1;whiteSpace=wrap;html=1;fillColor=#dae8fc;strokeColor=#6c8ebf;" parent="1" vertex="1">
          <mxGeometry x="310" y="800" width="150" height="60" as="geometry" />
        </mxCell>
        <mxCell id="02JIWl4LWiFKqUMM9TiH-12" value="CPU Options&lt;span style=&quot;color: rgba(0, 0, 0, 0); font-family: monospace; font-size: 0px; text-align: start; text-wrap: nowrap;&quot;&gt;%3CmxGraphModel%3E%3Croot%3E%3CmxCell%20id%3D%220%22%2F%3E%3CmxCell%20id%3D%221%22%20parent%3D%220%22%2F%3E%3CmxCell%20id%3D%222%22%20value%3D%22Use%20CIROH%20AWS%20Instance%22%20style%3D%22rounded%3D1%3BwhiteSpace%3Dwrap%3Bhtml%3D1%3BfillColor%3D%23dae8fc%3BstrokeColor%3D%236c8ebf%3B%22%20vertex%3D%221%22%20parent%3D%221%22%3E%3CmxGeometry%20y%3D%22560%22%20width%3D%22150%22%20height%3D%2260%22%20as%3D%22geometry%22%2F%3E%3C%2FmxCell%3E%3C%2Froot%3E%3C%2FmxGraphModel%3E&lt;/span&gt;" style="rounded=1;whiteSpace=wrap;html=1;fillColor=#dae8fc;strokeColor=#6c8ebf;" parent="1" vertex="1">
          <mxGeometry x="677.5" y="800" width="150" height="60" as="geometry" />
        </mxCell>
        <mxCell id="02JIWl4LWiFKqUMM9TiH-13" value="CPU Options&lt;span style=&quot;color: rgba(0, 0, 0, 0); font-family: monospace; font-size: 0px; text-align: start; text-wrap: nowrap;&quot;&gt;%3CmxGraphModel%3E%3Croot%3E%3CmxCell%20id%3D%220%22%2F%3E%3CmxCell%20id%3D%221%22%20parent%3D%220%22%2F%3E%3CmxCell%20id%3D%222%22%20value%3D%22Use%20CIROH%20AWS%20Instance%22%20style%3D%22rounded%3D1%3BwhiteSpace%3Dwrap%3Bhtml%3D1%3BfillColor%3D%23dae8fc%3BstrokeColor%3D%236c8ebf%3B%22%20vertex%3D%221%22%20parent%3D%221%22%3E%3CmxGeometry%20y%3D%22560%22%20width%3D%22150%22%20height%3D%2260%22%20as%3D%22geometry%22%2F%3E%3C%2FmxCell%3E%3C%2Froot%3E%3C%2FmxGraphModel%3E&lt;/span&gt;" style="rounded=1;whiteSpace=wrap;html=1;fillColor=#dae8fc;strokeColor=#6c8ebf;" parent="1" vertex="1">
          <mxGeometry x="-30" y="800" width="150" height="60" as="geometry" />
        </mxCell>
        <mxCell id="02JIWl4LWiFKqUMM9TiH-14" value="Pantarhei" style="rounded=1;whiteSpace=wrap;html=1;fillColor=#dae8fc;strokeColor=#6c8ebf;" parent="1" vertex="1">
          <mxGeometry x="-550" y="540" width="150" height="60" as="geometry" />
        </mxCell>
        <mxCell id="02JIWl4LWiFKqUMM9TiH-15" value="" style="endArrow=classic;html=1;rounded=0;entryX=0.5;entryY=0;entryDx=0;entryDy=0;exitX=0.5;exitY=1;exitDx=0;exitDy=0;" parent="1" source="8pSMR1mgs5Wxbhjiagll-62" target="02JIWl4LWiFKqUMM9TiH-6" edge="1">
          <mxGeometry width="50" height="50" relative="1" as="geometry">
            <mxPoint x="-460" y="440" as="sourcePoint" />
            <mxPoint x="-410" y="390" as="targetPoint" />
          </mxGeometry>
        </mxCell>
        <mxCell id="02JIWl4LWiFKqUMM9TiH-16" value="" style="endArrow=classic;html=1;rounded=0;entryX=0.5;entryY=0;entryDx=0;entryDy=0;exitX=0.75;exitY=1;exitDx=0;exitDy=0;" parent="1" source="8pSMR1mgs5Wxbhjiagll-63" target="02JIWl4LWiFKqUMM9TiH-7" edge="1">
          <mxGeometry width="50" height="50" relative="1" as="geometry">
            <mxPoint x="-82.5" y="440" as="sourcePoint" />
            <mxPoint x="-7.5" y="500" as="targetPoint" />
          </mxGeometry>
        </mxCell>
        <mxCell id="02JIWl4LWiFKqUMM9TiH-17" value="" style="endArrow=classic;html=1;rounded=0;entryX=0.5;entryY=0;entryDx=0;entryDy=0;exitX=0.571;exitY=1.03;exitDx=0;exitDy=0;exitPerimeter=0;" parent="1" source="8pSMR1mgs5Wxbhjiagll-24" target="02JIWl4LWiFKqUMM9TiH-12" edge="1">
          <mxGeometry width="50" height="50" relative="1" as="geometry">
            <mxPoint x="475" y="620" as="sourcePoint" />
            <mxPoint x="550" y="680" as="targetPoint" />
          </mxGeometry>
        </mxCell>
        <mxCell id="02JIWl4LWiFKqUMM9TiH-18" value="" style="endArrow=classic;html=1;rounded=0;entryX=0.5;entryY=0;entryDx=0;entryDy=0;exitX=0.5;exitY=1;exitDx=0;exitDy=0;" parent="1" source="8pSMR1mgs5Wxbhjiagll-23" target="02JIWl4LWiFKqUMM9TiH-11" edge="1">
          <mxGeometry width="50" height="50" relative="1" as="geometry">
            <mxPoint x="275" y="620" as="sourcePoint" />
            <mxPoint x="350" y="680" as="targetPoint" />
          </mxGeometry>
        </mxCell>
        <mxCell id="02JIWl4LWiFKqUMM9TiH-19" value="" style="endArrow=classic;html=1;rounded=0;entryX=0.535;entryY=-0.073;entryDx=0;entryDy=0;entryPerimeter=0;exitX=0.5;exitY=1;exitDx=0;exitDy=0;" parent="1" source="8pSMR1mgs5Wxbhjiagll-22" target="02JIWl4LWiFKqUMM9TiH-13" edge="1">
          <mxGeometry width="50" height="50" relative="1" as="geometry">
            <mxPoint x="50" y="620" as="sourcePoint" />
            <mxPoint x="125" y="680" as="targetPoint" />
          </mxGeometry>
        </mxCell>
        <mxCell id="02JIWl4LWiFKqUMM9TiH-20" value="" style="endArrow=classic;html=1;rounded=0;entryX=0.5;entryY=0;entryDx=0;entryDy=0;exitX=0.5;exitY=1;exitDx=0;exitDy=0;" parent="1" source="8pSMR1mgs5Wxbhjiagll-62" target="02JIWl4LWiFKqUMM9TiH-5" edge="1">
          <mxGeometry width="50" height="50" relative="1" as="geometry">
            <mxPoint x="-460" y="440" as="sourcePoint" />
            <mxPoint x="-385" y="500" as="targetPoint" />
          </mxGeometry>
        </mxCell>
        <mxCell id="02JIWl4LWiFKqUMM9TiH-21" value="" style="endArrow=classic;html=1;rounded=0;entryX=0.5;entryY=0;entryDx=0;entryDy=0;exitX=0.75;exitY=1;exitDx=0;exitDy=0;" parent="1" source="8pSMR1mgs5Wxbhjiagll-63" target="02JIWl4LWiFKqUMM9TiH-14" edge="1">
          <mxGeometry width="50" height="50" relative="1" as="geometry">
            <mxPoint x="-82.5" y="440" as="sourcePoint" />
            <mxPoint x="-7.5" y="500" as="targetPoint" />
          </mxGeometry>
        </mxCell>
        <mxCell id="02JIWl4LWiFKqUMM9TiH-22" value="" style="endArrow=classic;html=1;rounded=0;entryX=0.5;entryY=0;entryDx=0;entryDy=0;exitX=0.5;exitY=1;exitDx=0;exitDy=0;" parent="1" source="8pSMR1mgs5Wxbhjiagll-22" target="02JIWl4LWiFKqUMM9TiH-10" edge="1">
          <mxGeometry width="50" height="50" relative="1" as="geometry">
            <mxPoint x="50" y="620" as="sourcePoint" />
            <mxPoint x="-50" y="720" as="targetPoint" />
          </mxGeometry>
        </mxCell>
        <mxCell id="02JIWl4LWiFKqUMM9TiH-23" value="" style="endArrow=classic;html=1;rounded=0;entryX=0.5;entryY=0;entryDx=0;entryDy=0;exitX=0.5;exitY=1;exitDx=0;exitDy=0;" parent="1" source="8pSMR1mgs5Wxbhjiagll-23" target="02JIWl4LWiFKqUMM9TiH-9" edge="1">
          <mxGeometry width="50" height="50" relative="1" as="geometry">
            <mxPoint x="275" y="620" as="sourcePoint" />
            <mxPoint x="230" y="710" as="targetPoint" />
          </mxGeometry>
        </mxCell>
        <mxCell id="02JIWl4LWiFKqUMM9TiH-24" value="" style="endArrow=classic;html=1;rounded=0;entryX=0.5;entryY=0;entryDx=0;entryDy=0;" parent="1" source="8pSMR1mgs5Wxbhjiagll-24" target="02JIWl4LWiFKqUMM9TiH-8" edge="1">
          <mxGeometry width="50" height="50" relative="1" as="geometry">
            <mxPoint x="475" y="620" as="sourcePoint" />
            <mxPoint x="520" y="700" as="targetPoint" />
          </mxGeometry>
        </mxCell>
        <mxCell id="02JIWl4LWiFKqUMM9TiH-25" value="" style="endArrow=classic;html=1;rounded=0;entryX=0.5;entryY=0;entryDx=0;entryDy=0;" parent="1" target="8pSMR1mgs5Wxbhjiagll-24" edge="1">
          <mxGeometry width="50" height="50" relative="1" as="geometry">
            <mxPoint x="475" y="620" as="sourcePoint" />
            <mxPoint x="535" y="810" as="targetPoint" />
          </mxGeometry>
        </mxCell>
        <mxCell id="8pSMR1mgs5Wxbhjiagll-24" value="Use CIROH JupyterHub" style="rounded=1;whiteSpace=wrap;html=1;fillColor=#dae8fc;strokeColor=#6c8ebf;" parent="1" vertex="1">
          <mxGeometry x="425" y="580" width="160" height="60" as="geometry" />
        </mxCell>
        <mxCell id="HN47xHhtCCJwmfiZ5zty-3" value="GPU Options" style="rounded=1;whiteSpace=wrap;html=1;fillColor=#dae8fc;strokeColor=#6c8ebf;" parent="1" vertex="1">
          <mxGeometry x="-220" y="670" width="150" height="60" as="geometry" />
        </mxCell>
        <mxCell id="HN47xHhtCCJwmfiZ5zty-4" value="CPU Options&lt;span style=&quot;color: rgba(0, 0, 0, 0); font-family: monospace; font-size: 0px; text-align: start; text-wrap: nowrap;&quot;&gt;%3CmxGraphModel%3E%3Croot%3E%3CmxCell%20id%3D%220%22%2F%3E%3CmxCell%20id%3D%221%22%20parent%3D%220%22%2F%3E%3CmxCell%20id%3D%222%22%20value%3D%22Use%20CIROH%20AWS%20Instance%22%20style%3D%22rounded%3D1%3BwhiteSpace%3Dwrap%3Bhtml%3D1%3BfillColor%3D%23dae8fc%3BstrokeColor%3D%236c8ebf%3B%22%20vertex%3D%221%22%20parent%3D%221%22%3E%3CmxGeometry%20y%3D%22560%22%20width%3D%22150%22%20height%3D%2260%22%20as%3D%22geometry%22%2F%3E%3C%2FmxCell%3E%3C%2Froot%3E%3C%2FmxGraphModel%3E&lt;/span&gt;" style="rounded=1;whiteSpace=wrap;html=1;fillColor=#dae8fc;strokeColor=#6c8ebf;" parent="1" vertex="1">
          <mxGeometry x="-380" y="670" width="150" height="60" as="geometry" />
        </mxCell>
        <mxCell id="HN47xHhtCCJwmfiZ5zty-6" value="CPU Options&lt;span style=&quot;color: rgba(0, 0, 0, 0); font-family: monospace; font-size: 0px; text-align: start; text-wrap: nowrap;&quot;&gt;%3CmxGraphModel%3E%3Croot%3E%3CmxCell%20id%3D%220%22%2F%3E%3CmxCell%20id%3D%221%22%20parent%3D%220%22%2F%3E%3CmxCell%20id%3D%222%22%20value%3D%22Use%20CIROH%20AWS%20Instance%22%20style%3D%22rounded%3D1%3BwhiteSpace%3Dwrap%3Bhtml%3D1%3BfillColor%3D%23dae8fc%3BstrokeColor%3D%236c8ebf%3B%22%20vertex%3D%221%22%20parent%3D%221%22%3E%3CmxGeometry%20y%3D%22560%22%20width%3D%22150%22%20height%3D%2260%22%20as%3D%22geometry%22%2F%3E%3C%2FmxCell%3E%3C%2Froot%3E%3C%2FmxGraphModel%3E&lt;/span&gt;" style="rounded=1;whiteSpace=wrap;html=1;fillColor=#dae8fc;strokeColor=#6c8ebf;" parent="1" vertex="1">
          <mxGeometry x="-740" y="800" width="150" height="60" as="geometry" />
        </mxCell>
        <mxCell id="HN47xHhtCCJwmfiZ5zty-7" value="GPU Options&lt;span style=&quot;color: rgba(0, 0, 0, 0); font-family: monospace; font-size: 0px; text-align: start; text-wrap: nowrap;&quot;&gt;%3CmxGraphModel%3E%3Croot%3E%3CmxCell%20id%3D%220%22%2F%3E%3CmxCell%20id%3D%221%22%20parent%3D%220%22%2F%3E%3CmxCell%20id%3D%222%22%20value%3D%22Use%20CIROH%20AWS%20Instance%22%20style%3D%22rounded%3D1%3BwhiteSpace%3Dwrap%3Bhtml%3D1%3BfillColor%3D%23dae8fc%3BstrokeColor%3D%236c8ebf%3B%22%20vertex%3D%221%22%20parent%3D%221%22%3E%3CmxGeometry%20y%3D%22560%22%20width%3D%22150%22%20height%3D%2260%22%20as%3D%22geometry%22%2F%3E%3C%2FmxCell%3E%3C%2Froot%3E%3C%2FmxGraphModel%3E&lt;/span&gt;" style="rounded=1;whiteSpace=wrap;html=1;fillColor=#dae8fc;strokeColor=#6c8ebf;" parent="1" vertex="1">
          <mxGeometry x="-570" y="800" width="150" height="60" as="geometry" />
        </mxCell>
        <mxCell id="HN47xHhtCCJwmfiZ5zty-8" value="FPGA Option" style="rounded=1;whiteSpace=wrap;html=1;fillColor=#dae8fc;strokeColor=#6c8ebf;" parent="1" vertex="1">
          <mxGeometry x="-400" y="800" width="150" height="60" as="geometry" />
        </mxCell>
        <mxCell id="HN47xHhtCCJwmfiZ5zty-9" value="" style="endArrow=classic;html=1;rounded=0;exitX=0.5;exitY=1;exitDx=0;exitDy=0;" parent="1" source="02JIWl4LWiFKqUMM9TiH-14" edge="1">
          <mxGeometry width="50" height="50" relative="1" as="geometry">
            <mxPoint x="60" y="520" as="sourcePoint" />
            <mxPoint x="-470" y="800" as="targetPoint" />
          </mxGeometry>
        </mxCell>
        <mxCell id="HN47xHhtCCJwmfiZ5zty-10" value="" style="endArrow=classic;html=1;rounded=0;exitX=0.5;exitY=1;exitDx=0;exitDy=0;entryX=0.369;entryY=-0.022;entryDx=0;entryDy=0;entryPerimeter=0;" parent="1" source="02JIWl4LWiFKqUMM9TiH-14" target="HN47xHhtCCJwmfiZ5zty-8" edge="1">
          <mxGeometry width="50" height="50" relative="1" as="geometry">
            <mxPoint x="-455" y="610" as="sourcePoint" />
            <mxPoint x="-495" y="770" as="targetPoint" />
          </mxGeometry>
        </mxCell>
        <mxCell id="HN47xHhtCCJwmfiZ5zty-11" value="" style="endArrow=classic;html=1;rounded=0;entryX=0.842;entryY=0.043;entryDx=0;entryDy=0;exitX=0.5;exitY=1;exitDx=0;exitDy=0;entryPerimeter=0;" parent="1" source="02JIWl4LWiFKqUMM9TiH-14" target="HN47xHhtCCJwmfiZ5zty-6" edge="1">
          <mxGeometry width="50" height="50" relative="1" as="geometry">
            <mxPoint x="-470" y="600" as="sourcePoint" />
            <mxPoint x="-550" y="770" as="targetPoint" />
          </mxGeometry>
        </mxCell>
        <mxCell id="HN47xHhtCCJwmfiZ5zty-12" style="edgeStyle=orthogonalEdgeStyle;rounded=0;orthogonalLoop=1;jettySize=auto;html=1;exitX=0.5;exitY=1;exitDx=0;exitDy=0;" parent="1" source="HN47xHhtCCJwmfiZ5zty-8" target="HN47xHhtCCJwmfiZ5zty-8" edge="1">
          <mxGeometry relative="1" as="geometry" />
        </mxCell>
        <mxCell id="HN47xHhtCCJwmfiZ5zty-13" value="" style="endArrow=classic;html=1;rounded=0;entryX=0.5;entryY=0;entryDx=0;entryDy=0;exitX=0.5;exitY=1;exitDx=0;exitDy=0;" parent="1" source="02JIWl4LWiFKqUMM9TiH-7" target="HN47xHhtCCJwmfiZ5zty-4" edge="1">
          <mxGeometry width="50" height="50" relative="1" as="geometry">
            <mxPoint x="-270" y="600" as="sourcePoint" />
            <mxPoint x="-310" y="760" as="targetPoint" />
          </mxGeometry>
        </mxCell>
        <mxCell id="HN47xHhtCCJwmfiZ5zty-14" value="" style="endArrow=classic;html=1;rounded=0;entryX=0.606;entryY=0.018;entryDx=0;entryDy=0;exitX=0.5;exitY=1;exitDx=0;exitDy=0;entryPerimeter=0;" parent="1" source="02JIWl4LWiFKqUMM9TiH-7" target="HN47xHhtCCJwmfiZ5zty-3" edge="1">
          <mxGeometry width="50" height="50" relative="1" as="geometry">
            <mxPoint x="-250" y="610" as="sourcePoint" />
            <mxPoint x="-310" y="760" as="targetPoint" />
            <Array as="points">
              <mxPoint x="-180" y="640" />
            </Array>
          </mxGeometry>
        </mxCell>
      </root>
    </mxGraphModel>
  </diagram>
</mxfile>
